<svg width="1000" height="200" viewBox="0 0 1000 200" fill="none" xmlns="http://www.w3.org/2000/svg">
<g filter="url(#filter0_b_1:3)">
<rect width="1000" height="200" fill="black"/>
<path d="M51.4102 136L56.2148 119.359H59.8477L64.6523 136H61.6641L60.7383 132.484H55.3242L54.3984 136H51.4102ZM56.0039 129.883H60.0586L58.1367 122.605H57.9258L56.0039 129.883ZM85.1953 136.234C83.3359 136.234 81.8828 136.117 80.8359 135.883L81.1758 133.164C82.0898 133.289 82.875 133.383 83.5312 133.445C84.1875 133.508 84.7422 133.539 85.1953 133.539C86.3359 133.539 87.1602 133.445 87.668 133.258C88.1836 133.07 88.4414 132.773 88.4414 132.367C88.4414 132.102 88.3672 131.902 88.2188 131.77C88.0703 131.629 87.8359 131.516 87.5156 131.43L83.9414 130.434C82.9492 130.16 82.2148 129.785 81.7383 129.309C81.2617 128.824 81.0234 128.145 81.0234 127.27C81.0234 125.918 81.5664 124.926 82.6523 124.293C83.7461 123.66 85.4453 123.344 87.75 123.344C88.3047 123.344 88.8594 123.363 89.4141 123.402C89.9688 123.441 90.5469 123.5 91.1484 123.578L90.8438 126.203C90.1641 126.141 89.5664 126.098 89.0508 126.074C88.543 126.051 88.0859 126.039 87.6797 126.039C86.3828 126.039 85.4453 126.129 84.8672 126.309C84.2891 126.488 84 126.777 84 127.176C84 127.441 84.0859 127.637 84.2578 127.762C84.4297 127.887 84.6953 127.996 85.0547 128.09L88.0547 128.898C89.2188 129.195 90.0781 129.613 90.6328 130.152C91.1953 130.691 91.4766 131.426 91.4766 132.355C91.4766 133.676 90.9648 134.652 89.9414 135.285C88.9258 135.918 87.3438 136.234 85.1953 136.234ZM101.238 136.234C99.0977 136.234 97.4453 135.68 96.2812 134.57C95.125 133.453 94.5469 131.852 94.5469 129.766C94.5469 127.734 95.0391 126.156 96.0234 125.031C97.0156 123.906 98.4102 123.344 100.207 123.344C101.941 123.344 103.281 123.859 104.227 124.891C105.18 125.922 105.656 127.418 105.656 129.379C105.656 129.941 105.633 130.477 105.586 130.984H97.5C97.9688 132.703 99.3086 133.562 101.52 133.562C102.066 133.562 102.602 133.535 103.125 133.48C103.656 133.418 104.195 133.336 104.742 133.234L105.047 135.906C104.273 136.047 103.566 136.137 102.926 136.176C102.293 136.215 101.73 136.234 101.238 136.234ZM97.3711 128.898H102.891C102.891 127.945 102.656 127.219 102.188 126.719C101.719 126.211 101.066 125.957 100.23 125.957C99.418 125.957 98.7656 126.211 98.2734 126.719C97.7812 127.227 97.4805 127.953 97.3711 128.898ZM116.133 136.234C114.617 136.234 113.523 135.82 112.852 134.992C112.188 134.164 111.855 132.84 111.855 131.02V121.047H108.281V118.422H114.738V130.902C114.738 131.762 114.879 132.387 115.16 132.777C115.449 133.168 116.086 133.363 117.07 133.363C117.742 133.363 118.594 133.215 119.625 132.918L119.953 135.742C119.305 135.914 118.68 136.039 118.078 136.117C117.477 136.195 116.828 136.234 116.133 136.234ZM125.824 136V128.664H121.992V126.156H125.824V124.633C125.824 120.336 127.852 118.188 131.906 118.188C132.844 118.188 133.742 118.266 134.602 118.422L134.32 121.047C133.812 120.984 133.363 120.941 132.973 120.918C132.582 120.895 132.203 120.883 131.836 120.883C129.75 120.883 128.707 122.094 128.707 124.516V126.156H133.711V128.664H128.707V136H125.824ZM158.953 136.234C156.906 136.234 155.43 135.82 154.523 134.992C153.625 134.164 153.176 132.84 153.176 131.02V126.203H150.141V123.578H153.176V119.828H156.059V123.578H161.625V126.203H156.059V130.785C156.059 131.754 156.301 132.457 156.785 132.895C157.277 133.324 158.078 133.539 159.188 133.539C159.555 133.539 159.949 133.52 160.371 133.48C160.793 133.434 161.273 133.375 161.812 133.305L162.094 135.953C161.57 136.047 161.059 136.117 160.559 136.164C160.059 136.211 159.523 136.234 158.953 136.234ZM172.922 136.117L172.758 133.375H172.488C172.387 134.328 171.996 135.043 171.316 135.52C170.645 135.996 169.754 136.234 168.645 136.234C167.332 136.234 166.312 135.918 165.586 135.285C164.867 134.645 164.508 133.734 164.508 132.555C164.508 131.195 164.992 130.152 165.961 129.426C166.93 128.699 168.301 128.336 170.074 128.336C171.02 128.336 171.84 128.41 172.535 128.559V128.312C172.535 127.586 172.25 127.055 171.68 126.719C171.109 126.375 170.258 126.188 169.125 126.156L166.031 126.074L166.266 123.461L168.891 123.496C171.062 123.527 172.676 123.973 173.73 124.832C174.785 125.684 175.312 126.93 175.312 128.57V133.398L177.188 133.656V136L172.922 136.117ZM172.535 130.891C172.113 130.812 171.711 130.77 171.328 130.762C170.953 130.746 170.559 130.738 170.145 130.738C168.301 130.738 167.379 131.281 167.379 132.367C167.379 133.344 168.012 133.832 169.277 133.832C170.004 133.832 170.605 133.703 171.082 133.445C171.566 133.18 171.93 132.848 172.172 132.449C172.414 132.043 172.535 131.625 172.535 131.195V130.891ZM183.023 136.234C181.797 136.234 180.844 135.848 180.164 135.074C179.492 134.293 179.156 133.195 179.156 131.781V123.578H182.051V131.312C182.051 132.023 182.227 132.574 182.578 132.965C182.938 133.348 183.438 133.539 184.078 133.539C184.891 133.539 185.5 133.254 185.906 132.684C186.32 132.105 186.527 131.141 186.527 129.789V123.578H189.422V133.398L191.133 133.656V136L186.738 136.117L186.562 133.609H186.258C186.062 134.453 185.68 135.102 185.109 135.555C184.547 136.008 183.852 136.234 183.023 136.234ZM193.758 141.602L193.641 139.035L197.625 138.918C198.781 138.879 199.621 138.555 200.145 137.945C200.668 137.344 200.934 136.453 200.941 135.273V133.75H200.695C200.594 134.555 200.27 135.172 199.723 135.602C199.176 136.023 198.449 136.234 197.543 136.234C195.965 136.234 194.75 135.688 193.898 134.594C193.055 133.5 192.633 131.918 192.633 129.848C192.633 127.746 193.059 126.137 193.91 125.02C194.762 123.902 195.977 123.344 197.555 123.344C199.438 123.344 200.512 124.172 200.777 125.828H200.977L201.176 123.578H203.836V134.898C203.836 137.109 203.32 138.738 202.289 139.785C201.266 140.84 199.633 141.406 197.391 141.484L193.758 141.602ZM200.941 129.625C200.941 127.195 200.059 125.98 198.293 125.98C197.41 125.98 196.734 126.312 196.266 126.977C195.797 127.641 195.562 128.598 195.562 129.848C195.562 132.348 196.473 133.598 198.293 133.598C199.223 133.598 199.895 133.301 200.309 132.707C200.73 132.113 200.941 131.199 200.941 129.965V129.625ZM215.004 136V128.266C215.004 127.539 214.832 126.977 214.488 126.578C214.152 126.18 213.672 125.98 213.047 125.98C211.305 125.98 210.434 127.109 210.434 129.367V136H207.539V118.422H210.434V125.828H210.715C210.816 124.992 211.109 124.371 211.594 123.965C212.078 123.551 212.805 123.344 213.773 123.344C215.086 123.344 216.102 123.742 216.82 124.539C217.539 125.336 217.898 126.461 217.898 127.914V136H215.004ZM229.266 136.234C227.219 136.234 225.742 135.82 224.836 134.992C223.938 134.164 223.488 132.84 223.488 131.02V126.203H220.453V123.578H223.488V119.828H226.371V123.578H231.938V126.203H226.371V130.785C226.371 131.754 226.613 132.457 227.098 132.895C227.59 133.324 228.391 133.539 229.5 133.539C229.867 133.539 230.262 133.52 230.684 133.48C231.105 133.434 231.586 133.375 232.125 133.305L232.406 135.953C231.883 136.047 231.371 136.117 230.871 136.164C230.371 136.211 229.836 136.234 229.266 136.234ZM253.793 136.234C252.215 136.234 251 135.688 250.148 134.594C249.305 133.5 248.883 131.918 248.883 129.848C248.883 127.746 249.309 126.137 250.16 125.02C251.012 123.902 252.227 123.344 253.805 123.344C255.625 123.344 256.66 124.172 256.91 125.828H257.191V118.422H260.086V136L257.566 136.117L257.203 133.75H256.945C256.844 134.555 256.52 135.172 255.973 135.602C255.426 136.023 254.699 136.234 253.793 136.234ZM257.191 129.965V129.625C257.191 127.195 256.309 125.98 254.543 125.98C253.66 125.98 252.984 126.312 252.516 126.977C252.047 127.641 251.812 128.598 251.812 129.848C251.812 132.348 252.723 133.598 254.543 133.598C255.473 133.598 256.145 133.301 256.559 132.707C256.98 132.113 257.191 131.199 257.191 129.965ZM269.988 136.234C267.848 136.234 266.195 135.68 265.031 134.57C263.875 133.453 263.297 131.852 263.297 129.766C263.297 127.734 263.789 126.156 264.773 125.031C265.766 123.906 267.16 123.344 268.957 123.344C270.691 123.344 272.031 123.859 272.977 124.891C273.93 125.922 274.406 127.418 274.406 129.379C274.406 129.941 274.383 130.477 274.336 130.984H266.25C266.719 132.703 268.059 133.562 270.27 133.562C270.816 133.562 271.352 133.535 271.875 133.48C272.406 133.418 272.945 133.336 273.492 133.234L273.797 135.906C273.023 136.047 272.316 136.137 271.676 136.176C271.043 136.215 270.48 136.234 269.988 136.234ZM266.121 128.898H271.641C271.641 127.945 271.406 127.219 270.938 126.719C270.469 126.211 269.816 125.957 268.98 125.957C268.168 125.957 267.516 126.211 267.023 126.719C266.531 127.227 266.23 127.953 266.121 128.898ZM281.145 136L276.82 123.578H279.82L282.926 133.48H283.137L286.242 123.578H289.242L284.918 136H281.145ZM298.113 136.234C295.973 136.234 294.32 135.68 293.156 134.57C292 133.453 291.422 131.852 291.422 129.766C291.422 127.734 291.914 126.156 292.898 125.031C293.891 123.906 295.285 123.344 297.082 123.344C298.816 123.344 300.156 123.859 301.102 124.891C302.055 125.922 302.531 127.418 302.531 129.379C302.531 129.941 302.508 130.477 302.461 130.984H294.375C294.844 132.703 296.184 133.562 298.395 133.562C298.941 133.562 299.477 133.535 300 133.48C300.531 133.418 301.07 133.336 301.617 133.234L301.922 135.906C301.148 136.047 300.441 136.137 299.801 136.176C299.168 136.215 298.605 136.234 298.113 136.234ZM294.246 128.898H299.766C299.766 127.945 299.531 127.219 299.062 126.719C298.594 126.211 297.941 125.957 297.105 125.957C296.293 125.957 295.641 126.211 295.148 126.719C294.656 127.227 294.355 127.953 294.246 128.898ZM313.008 136.234C311.492 136.234 310.398 135.82 309.727 134.992C309.062 134.164 308.73 132.84 308.73 131.02V121.047H305.156V118.422H311.613V130.902C311.613 131.762 311.754 132.387 312.035 132.777C312.324 133.168 312.961 133.363 313.945 133.363C314.617 133.363 315.469 133.215 316.5 132.918L316.828 135.742C316.18 135.914 315.555 136.039 314.953 136.117C314.352 136.195 313.703 136.234 313.008 136.234ZM325.219 136.234C323.453 136.234 322.086 135.672 321.117 134.547C320.148 133.422 319.664 131.836 319.664 129.789C319.664 127.734 320.148 126.148 321.117 125.031C322.086 123.906 323.453 123.344 325.219 123.344C326.984 123.344 328.352 123.906 329.32 125.031C330.289 126.148 330.773 127.734 330.773 129.789C330.773 131.836 330.289 133.422 329.32 134.547C328.352 135.672 326.984 136.234 325.219 136.234ZM325.219 133.539C326.039 133.539 326.672 133.215 327.117 132.566C327.57 131.91 327.797 130.984 327.797 129.789C327.797 128.586 327.57 127.66 327.117 127.012C326.672 126.363 326.039 126.039 325.219 126.039C324.398 126.039 323.762 126.363 323.309 127.012C322.863 127.66 322.641 128.586 322.641 129.789C322.641 130.984 322.863 131.91 323.309 132.566C323.762 133.215 324.398 133.539 325.219 133.539ZM334.102 141.391V123.578H336.762L336.961 125.828H337.16C337.426 124.172 338.5 123.344 340.383 123.344C341.969 123.344 343.184 123.902 344.027 125.02C344.879 126.137 345.305 127.746 345.305 129.848C345.305 131.918 344.879 133.5 344.027 134.594C343.184 135.688 341.973 136.234 340.395 136.234C339.496 136.234 338.773 136.023 338.227 135.602C337.68 135.172 337.352 134.555 337.242 133.75H336.996V141.391H334.102ZM336.996 129.965C336.996 131.199 337.203 132.113 337.617 132.707C338.039 133.301 338.715 133.598 339.645 133.598C341.465 133.598 342.375 132.348 342.375 129.848C342.375 128.598 342.141 127.641 341.672 126.977C341.203 126.312 340.527 125.98 339.645 125.98C337.879 125.98 336.996 127.195 336.996 129.625V129.965ZM354.363 136.234C352.223 136.234 350.57 135.68 349.406 134.57C348.25 133.453 347.672 131.852 347.672 129.766C347.672 127.734 348.164 126.156 349.148 125.031C350.141 123.906 351.535 123.344 353.332 123.344C355.066 123.344 356.406 123.859 357.352 124.891C358.305 125.922 358.781 127.418 358.781 129.379C358.781 129.941 358.758 130.477 358.711 130.984H350.625C351.094 132.703 352.434 133.562 354.645 133.562C355.191 133.562 355.727 133.535 356.25 133.48C356.781 133.418 357.32 133.336 357.867 133.234L358.172 135.906C357.398 136.047 356.691 136.137 356.051 136.176C355.418 136.215 354.855 136.234 354.363 136.234ZM350.496 128.898H356.016C356.016 127.945 355.781 127.219 355.312 126.719C354.844 126.211 354.191 125.957 353.355 125.957C352.543 125.957 351.891 126.211 351.398 126.719C350.906 127.227 350.605 127.953 350.496 128.898ZM366.762 130.656V133.492H369.727V136H361.195V133.492H363.879V126.086H361.664V123.578H366.293L366.68 126.531H367.066C367.191 124.406 368.281 123.344 370.336 123.344C372.773 123.344 373.992 124.977 373.992 128.242H371.109C371.109 127.438 370.973 126.859 370.699 126.508C370.434 126.156 370.004 125.98 369.41 125.98C368.527 125.98 367.863 126.387 367.418 127.199C366.98 128.012 366.762 129.164 366.762 130.656ZM393.012 136V128.664H389.18V126.156H393.012V124.633C393.012 120.336 395.039 118.188 399.094 118.188C400.031 118.188 400.93 118.266 401.789 118.422L401.508 121.047C401 120.984 400.551 120.941 400.16 120.918C399.77 120.895 399.391 120.883 399.023 120.883C396.938 120.883 395.895 122.094 395.895 124.516V126.156H400.898V128.664H395.895V136H393.012ZM408.949 130.656V133.492H411.914V136H403.383V133.492H406.066V126.086H403.852V123.578H408.48L408.867 126.531H409.254C409.379 124.406 410.469 123.344 412.523 123.344C414.961 123.344 416.18 124.977 416.18 128.242H413.297C413.297 127.438 413.16 126.859 412.887 126.508C412.621 126.156 412.191 125.98 411.598 125.98C410.715 125.98 410.051 126.387 409.605 127.199C409.168 128.012 408.949 129.164 408.949 130.656ZM423.656 136.234C421.891 136.234 420.523 135.672 419.555 134.547C418.586 133.422 418.102 131.836 418.102 129.789C418.102 127.734 418.586 126.148 419.555 125.031C420.523 123.906 421.891 123.344 423.656 123.344C425.422 123.344 426.789 123.906 427.758 125.031C428.727 126.148 429.211 127.734 429.211 129.789C429.211 131.836 428.727 133.422 427.758 134.547C426.789 135.672 425.422 136.234 423.656 136.234ZM423.656 133.539C424.477 133.539 425.109 133.215 425.555 132.566C426.008 131.91 426.234 130.984 426.234 129.789C426.234 128.586 426.008 127.66 425.555 127.012C425.109 126.363 424.477 126.039 423.656 126.039C422.836 126.039 422.199 126.363 421.746 127.012C421.301 127.66 421.078 128.586 421.078 129.789C421.078 130.984 421.301 131.91 421.746 132.566C422.199 133.215 422.836 133.539 423.656 133.539ZM440.695 136V127.152C440.695 126.293 440.418 125.863 439.863 125.863C439.199 125.863 438.867 126.367 438.867 127.375V136H436.605V126.918C436.605 126.215 436.324 125.863 435.762 125.863C435.09 125.863 434.754 126.367 434.754 127.375V136H431.883V123.578H434.473L434.637 125.125H434.883C435.016 123.938 435.676 123.344 436.863 123.344C437.926 123.344 438.566 123.938 438.785 125.125H439.043C439.098 124.594 439.305 124.164 439.664 123.836C440.023 123.508 440.512 123.344 441.129 123.344C441.973 123.344 442.586 123.574 442.969 124.035C443.359 124.496 443.555 125.242 443.555 126.273V136H440.695ZM460.664 136V133.434H464.414V121.914H460.664V119.359H471.023V121.914H467.25V133.434H471.023V136H460.664ZM482.191 136V128.383C482.191 127.633 482.02 127.055 481.676 126.648C481.34 126.242 480.859 126.039 480.234 126.039C478.492 126.039 477.621 127.188 477.621 129.484V136H474.727V123.578H477.328L477.574 125.828H477.902C478.004 124.992 478.297 124.371 478.781 123.965C479.266 123.551 479.992 123.344 480.961 123.344C482.273 123.344 483.289 123.742 484.008 124.539C484.727 125.336 485.086 126.461 485.086 127.914V136H482.191ZM492.855 136.234C491.277 136.234 490.062 135.688 489.211 134.594C488.367 133.5 487.945 131.918 487.945 129.848C487.945 127.746 488.371 126.137 489.223 125.02C490.074 123.902 491.289 123.344 492.867 123.344C494.688 123.344 495.723 124.172 495.973 125.828H496.254V118.422H499.148V136L496.629 136.117L496.266 133.75H496.008C495.906 134.555 495.582 135.172 495.035 135.602C494.488 136.023 493.762 136.234 492.855 136.234ZM496.254 129.965V129.625C496.254 127.195 495.371 125.98 493.605 125.98C492.723 125.98 492.047 126.312 491.578 126.977C491.109 127.641 490.875 128.598 490.875 129.848C490.875 132.348 491.785 133.598 493.605 133.598C494.535 133.598 495.207 133.301 495.621 132.707C496.043 132.113 496.254 131.199 496.254 129.965ZM502.758 136V133.375H507.41V126.203H503.461V123.578H510.293V133.375H514.031V136H502.758ZM508.734 121.785C508.18 121.785 507.723 121.605 507.363 121.246C507.004 120.887 506.824 120.43 506.824 119.875C506.824 119.32 507.004 118.863 507.363 118.504C507.723 118.145 508.18 117.965 508.734 117.965C509.289 117.965 509.746 118.145 510.105 118.504C510.465 118.863 510.645 119.32 510.645 119.875C510.645 120.43 510.465 120.887 510.105 121.246C509.746 121.605 509.289 121.785 508.734 121.785ZM524.484 136.117L524.32 133.375H524.051C523.949 134.328 523.559 135.043 522.879 135.52C522.207 135.996 521.316 136.234 520.207 136.234C518.895 136.234 517.875 135.918 517.148 135.285C516.43 134.645 516.07 133.734 516.07 132.555C516.07 131.195 516.555 130.152 517.523 129.426C518.492 128.699 519.863 128.336 521.637 128.336C522.582 128.336 523.402 128.41 524.098 128.559V128.312C524.098 127.586 523.812 127.055 523.242 126.719C522.672 126.375 521.82 126.188 520.688 126.156L517.594 126.074L517.828 123.461L520.453 123.496C522.625 123.527 524.238 123.973 525.293 124.832C526.348 125.684 526.875 126.93 526.875 128.57V133.398L528.75 133.656V136L524.484 136.117ZM524.098 130.891C523.676 130.812 523.273 130.77 522.891 130.762C522.516 130.746 522.121 130.738 521.707 130.738C519.863 130.738 518.941 131.281 518.941 132.367C518.941 133.344 519.574 133.832 520.84 133.832C521.566 133.832 522.168 133.703 522.645 133.445C523.129 133.18 523.492 132.848 523.734 132.449C523.977 132.043 524.098 131.625 524.098 131.195V130.891ZM536.156 136.234C535.609 136.234 535.145 136.043 534.762 135.66C534.379 135.27 534.188 134.805 534.188 134.266C534.188 133.711 534.379 133.242 534.762 132.859C535.145 132.477 535.609 132.285 536.156 132.285C536.703 132.285 537.168 132.477 537.551 132.859C537.934 133.242 538.125 133.711 538.125 134.266C538.125 134.805 537.934 135.27 537.551 135.66C537.168 136.043 536.703 136.234 536.156 136.234Z" fill="#F3EC35"/>
<path d="M50.8203 103L60.4297 69.7188H67.6953L77.3047 103H71.3281L69.4766 95.9688H58.6484L56.7969 103H50.8203ZM60.0078 90.7656H68.1172L64.2734 76.2109H63.8516L60.0078 90.7656ZM89.9609 103.469C86.8047 103.469 84.375 102.375 82.6719 100.188C80.9844 98 80.1406 94.8359 80.1406 90.6953C80.1406 86.4922 80.9922 83.2734 82.6953 81.0391C84.3984 78.8047 86.8281 77.6875 89.9844 77.6875C93.625 77.6875 95.6953 79.3438 96.1953 82.6562H96.7578V67.8438H102.547V103L97.5078 103.234L96.7812 98.5H96.2656C96.0625 100.109 95.4141 101.344 94.3203 102.203C93.2266 103.047 91.7734 103.469 89.9609 103.469ZM96.7578 90.9297V90.25C96.7578 85.3906 94.9922 82.9609 91.4609 82.9609C89.6953 82.9609 88.3438 83.625 87.4062 84.9531C86.4688 86.2812 86 88.1953 86 90.6953C86 95.6953 87.8203 98.1953 91.4609 98.1953C93.3203 98.1953 94.6641 97.6016 95.4922 96.4141C96.3359 95.2266 96.7578 93.3984 96.7578 90.9297ZM109.766 103V97.75H119.07V83.4062H111.172V78.1562H124.836V97.75H132.312V103H109.766ZM121.719 74.5703C120.609 74.5703 119.695 74.2109 118.977 73.4922C118.258 72.7734 117.898 71.8594 117.898 70.75C117.898 69.6406 118.258 68.7266 118.977 68.0078C119.695 67.2891 120.609 66.9297 121.719 66.9297C122.828 66.9297 123.742 67.2891 124.461 68.0078C125.18 68.7266 125.539 69.6406 125.539 70.75C125.539 71.8594 125.18 72.7734 124.461 73.4922C123.742 74.2109 122.828 74.5703 121.719 74.5703ZM153.406 103.469C149.312 103.469 146.359 102.641 144.547 100.984C142.75 99.3281 141.852 96.6797 141.852 93.0391V83.4062H135.781V78.1562H141.852V70.6562H147.617V78.1562H158.75V83.4062H147.617V92.5703C147.617 94.5078 148.102 95.9141 149.07 96.7891C150.055 97.6484 151.656 98.0781 153.875 98.0781C154.609 98.0781 155.398 98.0391 156.242 97.9609C157.086 97.8672 158.047 97.75 159.125 97.6094L159.688 102.906C158.641 103.094 157.617 103.234 156.617 103.328C155.617 103.422 154.547 103.469 153.406 103.469ZM164.023 114.25L163.789 109.164L167.914 108.695C169.742 108.477 171.258 107.93 172.461 107.055C173.664 106.195 174.68 104.844 175.508 103H172.508L163.555 78.1562H169.648L176.586 98.2656H177.078L182.773 78.1562H188.867L181.812 100.797C180.875 103.766 179.805 106.156 178.602 107.969C177.414 109.797 176 111.156 174.359 112.047C172.719 112.953 170.758 113.531 168.477 113.781L164.023 114.25ZM209.469 103.234L209.141 97.75H208.602C208.398 99.6562 207.617 101.086 206.258 102.039C204.914 102.992 203.133 103.469 200.914 103.469C198.289 103.469 196.25 102.836 194.797 101.57C193.359 100.289 192.641 98.4688 192.641 96.1094C192.641 93.3906 193.609 91.3047 195.547 89.8516C197.484 88.3984 200.227 87.6719 203.773 87.6719C205.664 87.6719 207.305 87.8203 208.695 88.1172V87.625C208.695 86.1719 208.125 85.1094 206.984 84.4375C205.844 83.75 204.141 83.375 201.875 83.3125L195.688 83.1484L196.156 77.9219L201.406 77.9922C205.75 78.0547 208.977 78.9453 211.086 80.6641C213.195 82.3672 214.25 84.8594 214.25 88.1406V97.7969L218 98.3125V103L209.469 103.234ZM208.695 92.7812C207.852 92.625 207.047 92.5391 206.281 92.5234C205.531 92.4922 204.742 92.4766 203.914 92.4766C200.227 92.4766 198.383 93.5625 198.383 95.7344C198.383 97.6875 199.648 98.6641 202.18 98.6641C203.633 98.6641 204.836 98.4062 205.789 97.8906C206.758 97.3594 207.484 96.6953 207.969 95.8984C208.453 95.0859 208.695 94.25 208.695 93.3906V92.7812ZM250.391 103V69.7188H260.422C264.594 69.7188 267.789 70.6797 270.008 72.6016C272.242 74.5234 273.359 77.2812 273.359 80.875C273.359 84.8281 272.242 87.8672 270.008 89.9922C267.789 92.1016 264.594 93.1562 260.422 93.1562H256.039V103H250.391ZM256.039 87.9531H260.422C262.672 87.9531 264.391 87.3594 265.578 86.1719C266.781 84.9844 267.383 83.2969 267.383 81.1094C267.383 79.1094 266.781 77.5781 265.578 76.5156C264.391 75.4531 262.672 74.9219 260.422 74.9219H256.039V87.9531ZM293.844 103.234L293.516 97.75H292.977C292.773 99.6562 291.992 101.086 290.633 102.039C289.289 102.992 287.508 103.469 285.289 103.469C282.664 103.469 280.625 102.836 279.172 101.57C277.734 100.289 277.016 98.4688 277.016 96.1094C277.016 93.3906 277.984 91.3047 279.922 89.8516C281.859 88.3984 284.602 87.6719 288.148 87.6719C290.039 87.6719 291.68 87.8203 293.07 88.1172V87.625C293.07 86.1719 292.5 85.1094 291.359 84.4375C290.219 83.75 288.516 83.375 286.25 83.3125L280.062 83.1484L280.531 77.9219L285.781 77.9922C290.125 78.0547 293.352 78.9453 295.461 80.6641C297.57 82.3672 298.625 84.8594 298.625 88.1406V97.7969L302.375 98.3125V103L293.844 103.234ZM293.07 92.7812C292.227 92.625 291.422 92.5391 290.656 92.5234C289.906 92.4922 289.117 92.4766 288.289 92.4766C284.602 92.4766 282.758 93.5625 282.758 95.7344C282.758 97.6875 284.023 98.6641 286.555 98.6641C288.008 98.6641 289.211 98.4062 290.164 97.8906C291.133 97.3594 291.859 96.6953 292.344 95.8984C292.828 95.0859 293.07 94.25 293.07 93.3906V92.7812ZM322.156 103.469C318.062 103.469 315.109 102.641 313.297 100.984C311.5 99.3281 310.602 96.6797 310.602 93.0391V83.4062H304.531V78.1562H310.602V70.6562H316.367V78.1562H327.5V83.4062H316.367V92.5703C316.367 94.5078 316.852 95.9141 317.82 96.7891C318.805 97.6484 320.406 98.0781 322.625 98.0781C323.359 98.0781 324.148 98.0391 324.992 97.9609C325.836 97.8672 326.797 97.75 327.875 97.6094L328.438 102.906C327.391 103.094 326.367 103.234 325.367 103.328C324.367 103.422 323.297 103.469 322.156 103.469ZM347.352 103.469C343.07 103.469 339.766 102.359 337.438 100.141C335.125 97.9062 333.969 94.7031 333.969 90.5312C333.969 86.4688 334.953 83.3125 336.922 81.0625C338.906 78.8125 341.695 77.6875 345.289 77.6875C348.758 77.6875 351.438 78.7188 353.328 80.7812C355.234 82.8438 356.188 85.8359 356.188 89.7578C356.188 90.8828 356.141 91.9531 356.047 92.9688H339.875C340.812 96.4062 343.492 98.125 347.914 98.125C349.008 98.125 350.078 98.0703 351.125 97.9609C352.188 97.8359 353.266 97.6719 354.359 97.4688L354.969 102.812C353.422 103.094 352.008 103.273 350.727 103.352C349.461 103.43 348.336 103.469 347.352 103.469ZM339.617 88.7969H350.656C350.656 86.8906 350.188 85.4375 349.25 84.4375C348.312 83.4219 347.008 82.9141 345.336 82.9141C343.711 82.9141 342.406 83.4219 341.422 84.4375C340.438 85.4531 339.836 86.9062 339.617 88.7969ZM377.141 103.469C374.109 103.469 371.922 102.641 370.578 100.984C369.25 99.3281 368.586 96.6797 368.586 93.0391V73.0938H361.438V67.8438H374.352V92.8047C374.352 94.5234 374.633 95.7734 375.195 96.5547C375.773 97.3359 377.047 97.7266 379.016 97.7266C380.359 97.7266 382.062 97.4297 384.125 96.8359L384.781 102.484C383.484 102.828 382.234 103.078 381.031 103.234C379.828 103.391 378.531 103.469 377.141 103.469Z" fill="#F3EC35"/>
</g>
<defs>
<filter id="filter0_b_1:3" x="-4" y="-4" width="1008" height="208" filterUnits="userSpaceOnUse" color-interpolation-filters="sRGB">
<feFlood flood-opacity="0" result="BackgroundImageFix"/>
<feGaussianBlur in="BackgroundImage" stdDeviation="2"/>
<feComposite in2="SourceAlpha" operator="in" result="effect1_backgroundBlur_1:3"/>
<feBlend mode="normal" in="SourceGraphic" in2="effect1_backgroundBlur_1:3" result="shape"/>
</filter>
</defs>
</svg>
